<?xml version="1.0" standalone="no"?>
<!DOCTYPE svg PUBLIC "-//W3C//DTD SVG 1.1//EN" "http://www.w3.org/Graphics/SVG/1.1/DTD/svg11.dtd" >
<svg>
<metadata>
Created by FontForge 20090914 at Sun Sep 13 16:12:49 2020
 By www-data
Generated by Fontographer 3.5
</metadata>
<defs>
<font id="Robotic" horiz-adv-x="453" >
  <font-face 
    font-family="Robotic"
    font-weight="5"
    font-stretch="normal"
    units-per-em="1000"
    panose-1="0 0 0 0 0 0 0 0 0 0"
    ascent="800"
    descent="-200"
    cap-height="760"
    bbox="-2 -120 760 840"
    underline-thickness="0"
    underline-position="-80"
    unicode-range="U+0020-U+00D7"
  />
<missing-glyph horiz-adv-x="800" 
d="M50 0v800h700v-800h-700zM700 50v700h-600v-700h600z" />
    <glyph glyph-name=".notdef" horiz-adv-x="800" 
d="M50 0v800h700v-800h-700zM700 50v700h-600v-700h600z" />
    <glyph glyph-name="space" unicode=" " horiz-adv-x="500" 
 />
    <glyph glyph-name="space" unicode="&#xa0;" horiz-adv-x="500" 
 />
    <glyph glyph-name="exclam" unicode="!" horiz-adv-x="271" 
d="M200 360h-40v-160h-80v160h-40v360h40v80h80v-80h40v-360zM160 0h-80v80h80v-80z" />
    <glyph glyph-name="quotedbl" unicode="&#x22;" horiz-adv-x="295" 
d="M120 680h-80v160h80v-160zM240 680h-80v160h80v-160z" />
    <glyph glyph-name="numbersign" unicode="#" horiz-adv-x="386" 
d="M320 280h-80v-80h-40v80h-40v-80h-40v80h-80v40h80v40h-80v40h80v80h40v-80h40v80h40v-80h80v-40h-80v-40h80v-40zM200 320v40h-40v-40h40z" />
    <glyph glyph-name="dollar" unicode="$" horiz-adv-x="611" 
d="M480 120h-120v-120h-240v120h-80v200h80v120h-80v200h40v40h40v80h40v-80h160v80h40v-80h40v-40h40v-40h-80v-120h120v-360zM320 480v120h-160v-120h160zM400 160v280h-40v-280h40zM120 480v120h-40v-120h40zM320 160v280h-160v-280h160zM120 160v120h-40v-120h40z
M320 40v80h-160v-80h160z" />
    <glyph glyph-name="ampersand" unicode="&#x26;" horiz-adv-x="344" 
d="M280 360h-80v-80h-80v80h-80v80h80v80h80v-80h80v-80z" />
    <glyph glyph-name="quotesingle" unicode="'" horiz-adv-x="247" 
d="M120 680h-80v160h80v-160z" />
    <glyph glyph-name="parenleft" unicode="(" horiz-adv-x="252" 
d="M200 0h-160v800h160v-40h-120v-720h120v-40z" />
    <glyph glyph-name="parenright" unicode=")" horiz-adv-x="252" 
d="M200 0h-160v40h120v720h-120v40h160v-800z" />
    <glyph glyph-name="comma" unicode="," horiz-adv-x="247" 
d="M120 -80h-80v160h80v-160z" />
    <glyph glyph-name="hyphen" unicode="-" horiz-adv-x="434" 
d="M40 360v80h320v-80h-320z" />
    <glyph glyph-name="period" unicode="." horiz-adv-x="215" 
d="M120 0h-80v80h80v-80z" />
    <glyph glyph-name="slash" unicode="/" horiz-adv-x="860" 
d="M760 0h-720v800h720v-800zM720 40v720h-640v-720h640z" />
    <glyph glyph-name="zero" unicode="0" horiz-adv-x="464" 
d="M400 0h-360v760h360v-760zM320 360v320h-200v-600h160v280h40z" />
    <glyph glyph-name="one" unicode="1" horiz-adv-x="241" 
d="M200 80h-40v-80h-80v80h-40v360h40v200h-40v120h120v-320h40v-360z" />
    <glyph glyph-name="two" unicode="2" horiz-adv-x="435" 
d="M118 80h240v-80l-360 -3v83h40v360h200v240h-200v80h280v-400h-200v-280z" />
    <glyph glyph-name="three" unicode="3" horiz-adv-x="423" 
d="M360 0h-360v80h280v280h-240v80h200v240h-200v80h280v-320h40v-440z" />
    <glyph glyph-name="four" unicode="4" horiz-adv-x="441" 
d="M360 0h-80v360h-240v400h80v-320h160v320h80v-760z" />
    <glyph glyph-name="five" unicode="5" horiz-adv-x="423" 
d="M360 0h-360v80h280v280h-240v400h280v-80h-200v-240h240v-440z" />
    <glyph glyph-name="six" unicode="6" 
d="M400 0h-360v440h40v320h280v-80h-200v-240h240v-440zM320 80v280h-200v-280h200z" />
    <glyph glyph-name="seven" unicode="7" horiz-adv-x="574" 
d="M40 760h480v-400h-160v-360h-80v440h160v240h-400v80z" />
    <glyph glyph-name="eight" unicode="8" 
d="M400 0h-360v440h40v320h280v-320h40v-440zM280 440v240h-120v-240h120zM320 80v280h-200v-280h200z" />
    <glyph glyph-name="nine" unicode="9" 
d="M400 320h-40v-320h-280v80h200v240h-240v440h360v-440zM320 400v280h-200v-280h200z" />
    <glyph glyph-name="colon" unicode=":" horiz-adv-x="264" 
d="M160 480h-80v80h80v-80zM160 240h-80v80h80v-80z" />
    <glyph glyph-name="semicolon" unicode=";" horiz-adv-x="264" 
d="M160 480h-80v80h80v-80zM160 160h-80v160h80v-160z" />
    <glyph glyph-name="question" unicode="?" horiz-adv-x="477" 
d="M160 160h-80v280h200v120h40v120h-320v80h400v-400h-240v-200zM80 80v-80h80v80h-80z" />
    <glyph glyph-name="at" unicode="@" horiz-adv-x="1000" 
d="M400 40h-360v360h360v-360zM280 200v40h-40v40h-40v-40h-40v-40h120zM360 80v280h-280v-280h40v200h40v40h40v40h40v-40h40v-40h40v-200h40zM280 80v80h-120v-80h120z" />
    <glyph glyph-name="A" unicode="A" horiz-adv-x="640" 
d="M560 80h-40v-80h-80v200h-40v80h-40v40h-160v-40h-40v-80h-40v-200h-80v80h-40v280h40v120h40v160h40v80h40v40h240v-40h40v-80h40v-160h40v-120h40v-280zM440 400v80h-40v160h-40v40h-160v-40h-40v-160h-40v-80h320z" />
    <glyph glyph-name="B" unicode="B" horiz-adv-x="612" 
d="M560 80h-40v-80h-480v80h-40v560h40v80h40v40h320v-40h40v-40h40v-120h-40v-80h40v-40h40v-120h40v-240zM360 560v120h-240v-120h40v-40h160v40h40zM440 80v280h-40v40h-40v40h-160v-40h-40v-40h-40v-280h40v-40h240v40h40z" />
    <glyph glyph-name="C" unicode="C" horiz-adv-x="419" 
d="M360 40h-80v-40h-160v40h-80v80h-40v560h40v40h40v40h40v40h160l-2 -40h42v-40h40v-120h-40v40h-40v40h-120v-40h-40v-480h40v-40h120v40h40v40h40v-160z" />
    <glyph glyph-name="D" unicode="D" horiz-adv-x="484" 
d="M440 240h-40v-40h-40v-80h-40v-40h-40v-80h-240v40h-40v680h40v40h240v-80h40v-40h40v-80h40v-80h40v-240zM320 240v280h-40v120h-160v-520h160v120h40z" />
    <glyph glyph-name="E" unicode="E" horiz-adv-x="435" 
d="M360 40h-80v-40h-160v40h-80v80h-40v560h40v40h40v40h40v40h160v-40h40v-40h40v-120h-40v40h-40v40h-160v-240h120v-40h40v-40h-40v-40h-120v-160h40v-40h120v40h40v40h40v-160z" />
    <glyph glyph-name="F" unicode="F" horiz-adv-x="393" 
d="M360 560h-40v40h-40v40h-160v-240h120v-40h40v-40h-40v-40h-120v-280h-80v80h-40v560h40v40h40v40h40v40h160v-40h40v-40h40v-120z" />
    <glyph glyph-name="G" unicode="G" horiz-adv-x="490" 
d="M400 40h-80v-40h-160v40h-40v40h-40v40h-40v120h-40v320h40v120h40v40h40v40h40v40h160v-40h40v-40h40v-120h-40v40h-40v40h-120v-40h-40v-520h160v40h40v80h-40v40h-80v120h160v-360z" />
    <glyph glyph-name="H" unicode="H" horiz-adv-x="628" 
d="M560 80h-40v-80h-80v240h-40v80h-40v40h-160v-40h-40v-80h-40v-240h-80v80h-40v280h40v120h40v160h40v120h80v-120h-40v-160h-40v-80h320v80h-40v160h-40v120h80v-120h40v-160h40v-120h40v-280z" />
    <glyph glyph-name="I" unicode="I" horiz-adv-x="241" 
d="M190 80h-40v-80h-80v80h-40v360h40v320h80v-320h40v-360z" />
    <glyph glyph-name="J" unicode="J" horiz-adv-x="464" 
d="M400 120h-40v-120h-40v-80h-280v80h-40v80h80v-40h40v-40h120v40h40v80h-40v360h40v320h80v-320h40v-360z" />
    <glyph glyph-name="K" unicode="K" horiz-adv-x="570" 
d="M520 720h-40v-40h-40v-40h-40v-40h-40v-40h-40v-40h-40v-40h-40v-40h-40v-40h-40v-160h40v-40h40v-40h40v-40h40v-40h40v-40h40v-40h-80v40h-40v40h-40v40h-40v40h-40v-80h-40v-80h-80v80h-40v360h40v320h80v-320h40v40h40v40h40v40h40v40h40v80h40v40h40v40h120v-40z
" />
    <glyph glyph-name="L" unicode="L" horiz-adv-x="467" 
d="M440 0h-400v80h-40v360h40v320h80v-320h40v-360h280v-80z" />
    <glyph glyph-name="M" unicode="M" horiz-adv-x="784" 
d="M680 80h-40v-80h-80v80h-40v520h-40v-40h-40v-40h-40v-80h-120v80h-40v40h-40v40h-40v-520h-40v-80h-80v80h-40v600h40v80h80v-40h40v-40h40v-40h40v-40h40v-40h120v40h40v40h40v40h40v40h40v40h80v-80h40v-600z" />
    <glyph glyph-name="N" unicode="N" horiz-adv-x="657" 
d="M560 80h-40v-80h-80v80h-40v320h-40v40h-40v40h-40v40h-40v40h-40v40h-40v40h-40v-200h40v-360h-40v-80h-80v80h-40v560h40v120h80v-40h40v-40h40v-40h40v-40h40v-40h40v-40h40v-40h40v-40h40v320h80v-120h40v-560z" />
    <glyph glyph-name="O" unicode="O" horiz-adv-x="464" 
d="M400 80h-40v-40h-80v-40h-160v40h-80v80h-40v560h40v40h40v40h40v40h160v-40h40v-40h40v-40h40v-600zM320 360v280h-80v40h-80v-40h-40v-480h40v-40h80v40h40v200h40z" />
    <glyph glyph-name="P" unicode="P" horiz-adv-x="579" 
d="M480 520h-40v-40h-40v-40h-240v-40h-40v-400h-80v80h-40v560h40v80h40v40h320v-40h40v-40h40v-160zM360 560v120h-240v-120h40v-40h160v40h40z" />
    <glyph glyph-name="Q" unicode="Q" horiz-adv-x="543" 
d="M520 -120h-80v40h-40v40h-40v40h-40v40h-40v-40h-160v40h-80v80h-40v520h40v40h40v40h40v40h160v-40h40v-80h40v-40h40v-480h-40v-40h40v-40h40v-40h40v-40h40v-80zM320 360v240h-80v40h-80v-40h-40v-440h40v-40h80v40h40v200h40z" />
    <glyph glyph-name="R" unicode="R" horiz-adv-x="634" 
d="M520 0h-80v40h-40v40h-40v40h-40v40h-40v40h-40v40h-40v40h-40v40h-40v-320h-80v80h-40v560h40v80h40v40h320v-40h40v-40h40v-160h-40v-40h-40v-40h-160v-40h-40v-40h40v-40h40v-40h40v-40h40v-40h40v-40h40v-40h40v-40h40v-80zM360 560v120h-240v-120h40v-40h160v40h40z
" />
    <glyph glyph-name="S" unicode="S" horiz-adv-x="611" 
d="M560 80h-40v-80h-480v80h-40v200h40v40h80v-40h40v-240h240v40h40v280h-40v40h-40v40h-320v40h-40v160h40v80h40v40h320v-40h40v-80h-80v40h-240v-120h40v-40h280v-40h40v-40h40v-120h40v-240z" />
    <glyph glyph-name="T" unicode="T" horiz-adv-x="609" 
d="M326 0h-80v80h-40v320h40v160h-40v80h-120v40h-80l-3 80h563v-80h-80v-40h-120v-80h-40v-160h40v-320h-40v-80z" />
    <glyph glyph-name="U" unicode="U" horiz-adv-x="474" 
d="M400 40h-40v-40h-320v80h-40v600h40v80h80v-640h40v-40h80v40h40v200h40v440h80v-720z" />
    <glyph glyph-name="V" unicode="V" horiz-adv-x="446" 
d="M400 400h-40v-120h-40v-160h-40v-40h-40v-80h-80v80h-40v40h-40v160h-40v120h-40v320h40v80h80v-440h40v-240h80v240h40v440h80v-80h40v-320z" />
    <glyph glyph-name="W" unicode="W" horiz-adv-x="627" 
d="M560 400h-40v-120h-40v-160h-40v-40h-40v-80h-80v80h-80v-80h-80v80h-40v40h-40v160h-40v120h-40v320h40v80h80v-80h40v-600h80v160h80v-160h80v600h40v80h80v-80h40v-320z" />
    <glyph glyph-name="X" unicode="X" horiz-adv-x="591" 
d="M560 640h-40v-40h-40v-80h-40v-80h-40v-80h-40v-120h80v-40h80v-160h-40v-40h-80v160h-40v40h-40v40h-80v-40h-40v-40h-40v-160h-80v40h-40v160h80v40h80v120h-40v80h-40v80h-40v80h-40v40h-40v120h120v-80h40v-160h40v-80h40v-40h80v40h40v80h40v160h40v80h120v-120z
" />
    <glyph glyph-name="Y" unicode="Y" horiz-adv-x="660" 
d="M560 640h-40v-40h-40v-80h-40v-80h-40v-80h-40v-120h-40v-240h-80v240h-40v120h-40v80h-40v80h-40v80h-40v40h-40v120h120v-80h40v-160h40v-80h40v-40h80v40h40v80h40v160h40v80h120v-120z" />
    <glyph glyph-name="Z" unicode="Z" horiz-adv-x="679" 
d="M640 680h-40v-40h-40v-40h-40v-40h-40v-40h-40v-40h-40v-40h-40v-40h-40v-40h-40v-40h-40v-80h-40v-40h40v-40h40v-40h120v-40h200v-80h-600v80h40v80h40v80h40v40h40v40h40v40h40v40h40v40h40v40h40v40h40v40h40v40h40v40h-360v40h-80v80h600v-80z" />
    <glyph glyph-name="a" unicode="a" horiz-adv-x="640" 
d="M560 80h-40v-80h-80v200h-40v80h-40v40h-160v-40h-40v-80h-40v-200h-80v80h-40v280h40v120h40v160h40v80h40v40h240v-40h40v-80h40v-160h40v-120h40v-280zM440 400v80h-40v160h-40v40h-160v-40h-40v-160h-40v-80h320z" />
    <glyph glyph-name="b" unicode="b" horiz-adv-x="612" 
d="M560 80h-40v-80h-480v80h-40v560h40v80h40v40h320v-40h40v-40h40v-120h-40v-80h40v-40h40v-120h40v-240zM360 560v120h-240v-120h40v-40h160v40h40zM440 80v280h-40v40h-40v40h-160v-40h-40v-40h-40v-280h40v-40h240v40h40z" />
    <glyph glyph-name="c" unicode="c" horiz-adv-x="419" 
d="M360 40h-80v-40h-160v40h-80v80h-40v560h40v40h40v40h40v40h160l-2 -40h42v-40h40v-120h-40v40h-40v40h-120v-40h-40v-480h40v-40h120v40h40v40h40v-160z" />
    <glyph glyph-name=".null" unicode="&#xd7;" horiz-adv-x="0" 
 />
    <glyph glyph-name=".null" unicode="&#x141;" horiz-adv-x="0" 
 />
    <glyph glyph-name=".null" unicode="&#xfd;" horiz-adv-x="0" 
 />
    <glyph glyph-name="nonmarkingreturn" horiz-adv-x="500" 
 />
  </font>
</defs>
</svg>
